<?xml version="1.0" ?><!DOCTYPE svg  PUBLIC '-//W3C//DTD SVG 1.1//EN'  'http://www.w3.org/Graphics/SVG/1.1/DTD/svg11.dtd'><svg height="512px" style="enable-background:new 0 0 512 512;" version="1.1" viewBox="0 0 512 512" width="512px" xml:space="preserve" xmlns="http://www.w3.org/2000/svg" xmlns:xlink="http://www.w3.org/1999/xlink"><g id="_x34_26_x2C__box_x2C__3d_x2C__cube_x2C__smartphone_x2C__product"><g><path d="M355.725,423.248l-0.192-16.151l-0.275-25.249H120.211l0.524,44.304    c0.028,1.271,0.195,2.489,0.526,3.65l0.026,0.166l0,0l0.111,0.331v0.028l0.11,0.332l0,0l0.112,0.331l0.026,0.028l0.056,0.139    v0.027l0.054,0.139v0.027l0.056,0.139l0.028,0.028l0.054,0.138v0.026l0.056,0.139l0.026,0.028l0.056,0.139v0.027l0.083,0.138l0,0    l0.083,0.167l0,0l0.056,0.165h0.028l0.054,0.139l0.028,0.027l0.056,0.139l0.026,0.027l0.084,0.138l0,0l0.083,0.139v0.028    l0.083,0.139l0,0l0.083,0.165l0,0l0.084,0.139l0,0l0.11,0.165l0,0l0.083,0.139l0,0l0.111,0.166l0,0l0.083,0.139l0,0l0.11,0.138    l0,0l0.11,0.138l0,0l0.084,0.167l0,0l0.11,0.139l0,0l0.111,0.138l0,0l0.11,0.138l0,0l0.111,0.139l0.11,0.139l0.11,0.139    l0.111,0.138l0,0l0.139,0.138l0.11,0.11l0,0l0.111,0.139l0,0l0.138,0.139l0,0l0.111,0.11l0,0l0.139,0.139l0,0l0.11,0.11l0,0    l0.137,0.139l0,0l0.111,0.111l0,0l0.249,0.221l0,0l0.028,0.027l0.11,0.11h0.028l0.11,0.111h0.028l0.111,0.11h0.026l0.084,0.111    h0.055l0.084,0.11h0.055l0.083,0.082l0.056,0.028l0.083,0.082l0.056,0.028l0.083,0.083l0.055,0.027l0.084,0.083l0.055,0.028    l0.084,0.055l0.055,0.056l0.082,0.055l0.084,0.027l0.137,0.11l0.084,0.057l0.083,0.027l0.139,0.11l0.082,0.056l0.056,0.027    l0.083,0.056l0.083,0.027l0.056,0.056l0.111,0.055l0.054,0.028l0.084,0.055l0.054,0.027l0.11,0.057l0.056,0.027l0.083,0.055    l0.055,0.028l0.11,0.055l0.056,0.027l0.111,0.056l0.028,0.028l0.139,0.055l0.026,0.028l0.139,0.055h0.028l0.111,0.056l0.054,0.027    l0.112,0.056h0.026l0.139,0.082h0.028l0.139,0.057h0.026l0.139,0.082h0.028l0.138,0.056h0.028l0.165,0.055l0,0l0.167,0.057v0.027    l0.165,0.055l0,0l0.167,0.056l0,0l0.165,0.056l0,0l0.167,0.027l0.028,0.027l0.137,0.027h0.028l0.139,0.056h0.028l0.139,0.055    h0.026l0.167,0.028l0.028,0.028l0.137,0.026h0.028l0.139,0.027l0.056,0.028l0.11,0.028h0.055l0.138,0.027h0.055l0.11,0.027h0.056    l0.139,0.027l0.055,0.028h0.11l0.056,0.028h0.11l0.083,0.027h0.111l0.084,0.027h0.083h0.083l0.11,0.027h0.083h0.084l0.11,0.028    h0.083h0.083l0.084,0.027h0.11h0.083h0.11h0.083h0.111l0.056,0.027h0.11h0.083h0.11h0.056c30.698-1.438,62.004-1.327,93.337-1.134    l112.53-1.383h0.194h0.193h0.165l0.194-0.028h0.193l0.193-0.027h0.167l0.192-0.026l0.195-0.028l0.165-0.028l0.192-0.027    l0.167-0.027h0.028l0.165-0.027l0,0l0.167-0.028h0.027l0.165-0.027l0,0l0.194-0.056l0.166-0.027l0,0l0.166-0.056l0,0l0.193-0.027    l0,0l0.166-0.056l0.166-0.055l0,0l0.192-0.028l0.167-0.082l0.166-0.028l0,0l0.166-0.056l0,0l0.192-0.083l0.167-0.055l0.166-0.056    l0.166-0.055l0,0l0.166-0.084l0.165-0.055l0,0l0.167-0.083l0,0l0.164-0.083l0.139-0.055h0.028l0.139-0.083l0,0l0.165-0.084l0,0    l0.167-0.082l0.139-0.084h0.026l0.139-0.083l0,0l0.166-0.082l0,0l0.139-0.083l0,0l0.165-0.083l0.139-0.11l0.167-0.084l0,0    l0.137-0.11l0.167-0.083l0.139-0.11l0,0l0.138-0.083l0.166-0.11l0.139-0.11l0.139-0.084l0,0l0.139-0.11l0,0l0.137-0.11l0.139-0.11    l0,0l0.139-0.111l0.139-0.11l0,0l0.139-0.139l0.137-0.11l0.11-0.11l0.138-0.11l0.139-0.139l0.111-0.11l0.139-0.139l0.11-0.111    l0.139-0.138l0.11-0.11l0.111-0.138l0.109-0.139l0.111-0.11l0.139-0.139l0.082-0.139h0.028l0.11-0.138l0.082-0.138l0.111-0.111    v-0.027l0.11-0.11l0,0l0.11-0.139v-0.028l0.082-0.11l0.029-0.027l0.082-0.138l0,0l0.11-0.139l0.085-0.139l0,0l0.109-0.139    l0.083-0.138l0,0l0.083-0.166l0,0l0.109-0.139l0,0l0.085-0.166l0.083-0.138l0,0l0.082-0.139l0,0l0.084-0.166l0,0l0.082-0.138    v-0.027l0.083-0.139l0.083-0.166l0,0l0.056-0.139h0.028l0.055-0.166l0.082-0.165l0,0l0.056-0.166l0,0l0.083-0.139v-0.028    l0.056-0.138l0,0l0.083-0.166l0.056-0.166l0,0l0.055-0.166l0,0l0.056-0.166l0,0l0.055-0.165l0,0l0.057-0.167h0.025l0.029-0.166    l0,0l0.056-0.165l0,0l0.054-0.166l0,0l0.057-0.166v-0.028l0.028-0.139l0.026-0.027l0.027-0.165l0,0l0.057-0.166l0,0l0.026-0.166    l0,0l0.028-0.167v-0.027l0.056-0.165l0,0l0.026-0.166l0,0l0.028-0.166v-0.028l0.028-0.166l0,0l0.027-0.165v-0.028l0.027-0.165l0,0    l0.027-0.167l0,0v-0.192h0.028v-0.167l0,0l0.028-0.193l0,0v-0.166l0,0l0.025-0.193l0,0v-0.166v-0.027v-0.166l0,0l0.028-0.193l0,0    v-0.167l0,0v-0.027L355.725,423.248z M336.506,52.471L130.97,54.986c-1.383,0-2.739,0.222-4.011,0.608l-0.139,0.028l-0.358,0.11    v0.028l-0.167,0.027l-0.028,0.027l-0.139,0.055h-0.026l-0.139,0.056h-0.028l-0.138,0.056l-0.026,0.027l-0.139,0.055h-0.028    l-0.139,0.056h-0.028l-0.137,0.083h-0.028l-0.139,0.055l-0.028,0.028l-0.137,0.056l0,0l-0.167,0.083l0,0l-0.167,0.083l0,0    l-0.137,0.083h-0.028l-0.139,0.083l0,0l-0.167,0.082l0,0l-0.137,0.084H124l-0.139,0.082l0,0l-0.165,0.084v0.027l-0.139,0.083l0,0    l-0.167,0.083l0,0l-0.139,0.11l0,0l-0.137,0.083h-0.028l-0.139,0.11l0,0l-0.139,0.083l0,0l-0.139,0.111h-0.026l-0.11,0.11h-0.028    l-0.139,0.083v0.027l-0.138,0.083v0.028l-0.139,0.082l0,0l-0.137,0.111l0,0l-0.139,0.11v0.028l-0.138,0.082v0.027l-0.139,0.111    l0,0l-0.139,0.11l0,0l-0.111,0.11l0,0l-0.137,0.139l-0.139,0.111l-0.11,0.11l-0.139,0.138l-0.111,0.11l-0.139,0.138l0,0    l-0.11,0.111v0.027l-0.11,0.111v0.027l-0.111,0.111h-0.028l-0.083,0.109l-0.028,0.029l-0.11,0.109v0.027l-0.11,0.111v0.027    l-0.111,0.111v0.027L119.63,60.6l-0.028,0.029l-0.083,0.109l-0.028,0.029l-0.083,0.109l-0.028,0.027l-0.083,0.111l-0.028,0.027    l-0.082,0.111l-0.028,0.027l-0.056,0.109l-0.026,0.057l-0.084,0.082l-0.026,0.056l-0.056,0.083l-0.056,0.056l-0.055,0.083    l-0.028,0.083l-0.055,0.083l-0.056,0.056l-0.028,0.083l-0.054,0.082l-0.056,0.056l-0.026,0.083l-0.056,0.083l-0.055,0.083    l-0.028,0.055l-0.056,0.084l-0.026,0.083l-0.056,0.083l-0.028,0.055l-0.054,0.11l-0.028,0.056l-0.056,0.11l-0.026,0.028    l-0.056,0.11l-0.028,0.056l-0.054,0.109l-0.028,0.056l-0.054,0.11v0.028l-0.056,0.139l-0.028,0.027l-0.054,0.138v0.028    l-0.056,0.138l-0.028,0.027l-0.054,0.139v0.027l-0.056,0.139h-0.026L117.39,64.5l0,0l-0.054,0.166l0,0l-0.056,0.166l0,0    l-0.055,0.166l-0.084,0.166l-0.026,0.165l-0.028,0.028l-0.028,0.166l0,0l-0.055,0.166l0,0l-0.056,0.166l0,0l-0.056,0.165v0.028    l-0.026,0.139v0.027l-0.057,0.139v0.055l-0.028,0.139v0.027l-0.026,0.138l-0.028,0.028l-0.028,0.139v0.055l-0.028,0.139v0.056    l-0.026,0.11v0.055l-0.028,0.11v0.083l-0.028,0.111v0.055l-0.028,0.111v0.083l-0.026,0.11v0.055l-0.028,0.111v0.082v0.111    l-0.028,0.084v0.082v0.111v0.082l-0.028,0.083v0.083v0.111v0.082v0.111v0.082l-0.026,0.111v0.055v0.111v0.082v0.111v0.194    l0.332,26.493l0,0h235.043l-0.358-29.342v-0.166v-0.194V66.49l-0.027-0.192v-0.194l-0.028-0.166l-0.028-0.192v-0.194l-0.025-0.166    l-0.029-0.193l-0.027-0.193l0,0l-0.028-0.166l-0.028-0.194l-0.025-0.165l-0.057-0.193l-0.028-0.166l-0.026-0.193l-0.057-0.166l0,0    l-0.054-0.194l0,0l-0.028-0.166l0,0l-0.056-0.165l-0.055-0.194l0,0l-0.056-0.166l-0.055-0.165l-0.057-0.166l0,0l-0.055-0.194    l-0.056-0.166l0,0l-0.083-0.165l0,0l-0.056-0.166l0,0l-0.054-0.166l-0.083-0.167l0,0l-0.056-0.165l0,0l-0.083-0.166l-0.083-0.166    l-0.084-0.166l-0.055-0.139l-0.084-0.165l-0.082-0.167l0,0l-0.11-0.166l-0.083-0.137l0,0l-0.082-0.168l-0.084-0.137l0,0    l-0.083-0.166l-0.11-0.139v-0.028l-0.082-0.138l-0.111-0.138l-0.084-0.167l-0.11-0.139l-0.11-0.137l-0.083-0.139l0,0l-0.11-0.166    l-0.11-0.139l-0.11-0.139l-0.111-0.138l-0.11-0.138l-0.11-0.139l-0.11-0.111l-0.139-0.138l-0.11-0.138l-0.111-0.139l-0.139-0.111    l-0.11-0.139l-0.138-0.138l-0.111-0.11C344.277,54.047,340.543,52.442,336.506,52.471z M351.883,103.162l-235.046,0.027    l3.29,271.855h235.018L351.883,103.162z M247.04,398.635c-2.352-2.296-5.614-3.706-9.155-3.679    c-3.567,0.056-6.775,1.521-9.07,3.899c-2.323,2.35-3.706,5.614-3.678,9.154c0.054,3.54,1.521,6.748,3.899,9.071    c2.352,2.295,5.613,3.706,9.154,3.678c3.568-0.056,6.775-1.55,9.07-3.899c2.295-2.352,3.706-5.614,3.678-9.154    C250.884,404.138,249.391,400.93,247.04,398.635z M237.802,388.208h0.083c5.394-0.056,10.316,2.074,13.884,5.56    c3.595,3.511,5.862,8.406,5.918,13.855v0.082c0.055,5.393-2.073,10.316-5.586,13.884c-3.485,3.595-8.407,5.862-13.828,5.918    c-5.448,0.083-10.371-2.074-13.966-5.587c-3.596-3.513-5.863-8.406-5.947-13.827c-0.055-5.448,2.074-10.398,5.587-13.966    C227.46,390.531,232.382,388.264,237.802,388.208z M308.324,265.002l-31.029,11.036V314.7l31.029-11.062V265.002z M270.52,276.038    l-31.031-11.036v38.637L270.52,314.7V276.038z M302.184,259.97l-28.264-11.45l0,0l-28.292,11.45l28.292,10.095L302.184,259.97z     M194.881,276.038l-31.029-11.036v38.637l31.029,11.062V276.038z M232.686,265.002l-31.029,11.036V314.7l31.029-11.062V265.002z     M169.99,259.97l28.265,10.095l28.292-10.095l-28.292-11.45l0,0L169.99,259.97z M232.686,218.154l-31.029-10.73v35.15    l31.029,12.556V218.154z M270.52,207.424l-31.031,10.73v36.976l29.204-11.837l1.827-0.719V207.424z M197.259,199.432    l37.585-14.768c0.774-0.305,1.658-0.333,2.488,0l37.585,14.768l0.082,0.027c1.327,0.443,2.296,1.715,2.296,3.209v39.906    l35.537,14.381l0.166,0.084h0.055l0.028,0.026h0.055l0.028,0.028l0.305,0.166h0.026l0.056,0.055l0,0l0.332,0.25l0,0    c0.139,0.109,0.277,0.248,0.414,0.387l0,0l0.057,0.055l0,0l0.193,0.276l0,0l0.027,0.056h0.028    c0.165,0.305,0.331,0.636,0.414,0.996l0.028,0.055c0.055,0.25,0.082,0.525,0.082,0.773v45.854c0,1.411-0.885,2.711-2.268,3.208    l-37.557,13.386l-0.055,0.027h-0.027h-0.028l-0.028,0.028l0,0h-0.054l-0.083,0.027l-0.028,0.027l0,0h-0.027l-0.055,0.028l0,0    h-0.028l-0.056,0.027l0,0h-0.028h-0.055v0.027h-0.028h-0.054l0,0l-0.028,0.027h-0.057l0,0h-0.025h-0.057v0.028h-0.028h-0.054    h-0.083l-0.028,0.028h-0.056l0,0h-0.028h-0.055l0,0h-0.056h-0.026h-0.084h-0.083h-0.11h-0.082h-0.028h-0.055l0,0h-0.056h-0.028    l0,0h-0.055l-0.028-0.028h-0.082h-0.056h-0.028v-0.028h-0.055h-0.028l0,0h-0.054l-0.028-0.027l0,0h-0.057h-0.026v-0.027h-0.056    h-0.028l0,0l-0.055-0.027h-0.027l0,0l-0.057-0.028h-0.026l0,0l-0.028-0.027l-0.082-0.027h-0.028h-0.027l-0.028-0.028h-0.026    h-0.028l-0.056-0.027l-36.422-12.998l-36.423,12.998l-0.054,0.027h-0.028h-0.028l-0.026,0.028H199.5h-0.028l-0.083,0.027    l-0.028,0.027l0,0h-0.028l-0.054,0.028l0,0h-0.028l-0.056,0.027l0,0h-0.026h-0.056v0.027h-0.028h-0.055l0,0l-0.028,0.027h-0.055    l0,0h-0.028h-0.056v0.028h-0.026h-0.056h-0.083l-0.028,0.028h-0.055l0,0h-0.028h-0.056l0,0h-0.055h-0.028h-0.083h-0.111h-0.084    h-0.083h-0.028h-0.054l0,0h-0.056h-0.026l0,0h-0.056l-0.028-0.028h-0.083h-0.056h-0.026v-0.028h-0.056h-0.028l0,0h-0.054    l-0.028-0.027l0,0h-0.054h-0.028v-0.027h-0.056h-0.026l0,0l-0.056-0.027h-0.028l0,0l-0.054-0.028h-0.028l0,0l-0.028-0.027    l-0.083-0.027h-0.056l0,0l-0.026-0.028h-0.028h-0.028l-0.054-0.027l-37.557-13.386c-1.383-0.497-2.267-1.797-2.267-3.208v-45.854    c0-0.248,0.026-0.523,0.11-0.773v-0.055c0.083-0.36,0.248-0.691,0.442-0.996l0,0l0.028-0.056l0,0l0.193-0.276l0,0l0.054-0.055l0,0    c0.139-0.139,0.277-0.277,0.416-0.387l0,0l0.332-0.25h0.028l0.026-0.055h0.028l0.305-0.166l0.055-0.028h0.028l0.028-0.026h0.054    l0.167-0.084l35.538-14.381v-39.906c0-1.052,0.47-1.964,1.189-2.6l0.026-0.029c0.332-0.248,0.691-0.441,1.079-0.58    L197.259,199.432z M178.067,140.885c1.272,0,2.599-0.83,3.041-1.908c1.133-2.268-0.581-4.895-3.041-4.895h-6.805    c-1.298,0-2.627,0.829-3.069,1.908c-1.105,2.268,0.609,4.895,3.069,4.895H178.067z M205.224,140.885c1.3,0,2.627-0.83,3.071-1.908    c1.134-2.268-0.609-4.895-3.071-4.895h-6.775c-1.3,0-2.627,0.829-3.069,1.908c-1.135,2.268,0.607,4.895,3.069,4.895H205.224z     M232.41,140.885c1.298,0,2.627-0.83,3.069-1.908c1.134-2.268-0.609-4.895-3.069-4.895h-6.777c-1.299,0-2.627,0.829-3.069,1.908    c-1.133,2.268,0.609,4.895,3.069,4.895H232.41z M259.595,140.885c1.3,0,2.627-0.83,3.07-1.908c1.105-2.268-0.608-4.895-3.07-4.895    h-6.803c-1.272,0-2.627,0.829-3.041,1.908c-1.135,2.268,0.579,4.895,3.041,4.895H259.595z M286.78,140.885    c1.272,0,2.627-0.83,3.041-1.908c1.136-2.268-0.58-4.895-3.041-4.895h-6.803c-1.272,0-2.629,0.829-3.043,1.908    c-1.133,2.268,0.581,4.895,3.043,4.895H286.78z M313.966,140.885c1.272,0,2.626-0.83,3.042-1.908    c1.134-2.268-0.58-4.895-3.042-4.895h-6.804c-1.272,0-2.627,0.829-3.043,1.908c-1.133,2.268,0.581,4.895,3.043,4.895H313.966z     M144.078,134.082c-1.272,0-2.627,0.829-3.042,1.908c-1.134,2.268,0.581,4.895,3.042,4.895h6.803c1.272,0,2.627-0.83,3.042-1.908    c1.134-2.268-0.581-4.895-3.042-4.895H144.078z M178.067,161.184c1.272,0,2.599-0.857,3.041-1.908    c1.133-2.268-0.581-4.895-3.041-4.895h-6.805c-1.298,0-2.627,0.829-3.069,1.908c-1.105,2.268,0.609,4.895,3.069,4.895H178.067z     M205.224,161.184c1.3,0,2.627-0.857,3.071-1.908c1.134-2.268-0.609-4.895-3.071-4.895h-6.775c-1.3,0-2.627,0.829-3.069,1.908    c-1.135,2.268,0.607,4.895,3.069,4.895H205.224z M232.41,161.184c1.298,0,2.627-0.857,3.069-1.908    c1.134-2.268-0.609-4.895-3.069-4.895h-6.777c-1.299,0-2.627,0.829-3.069,1.908c-1.133,2.268,0.609,4.895,3.069,4.895H232.41z     M259.595,161.184c1.3,0,2.627-0.857,3.07-1.908c1.105-2.268-0.608-4.895-3.07-4.895h-6.803c-1.272,0-2.627,0.829-3.041,1.908    c-1.135,2.268,0.579,4.895,3.041,4.895H259.595z M286.78,161.184c1.272,0,2.627-0.857,3.041-1.908    c1.136-2.268-0.58-4.895-3.041-4.895h-6.803c-1.272,0-2.629,0.829-3.043,1.908c-1.133,2.268,0.581,4.895,3.043,4.895H286.78z     M313.966,161.184c1.272,0,2.626-0.857,3.042-1.908c1.134-2.268-0.58-4.895-3.042-4.895h-6.804c-1.272,0-2.627,0.829-3.043,1.908    c-1.133,2.268,0.581,4.895,3.043,4.895H313.966z M144.078,154.381c-1.272,0-2.627,0.829-3.042,1.908    c-1.134,2.268,0.581,4.895,3.042,4.895h6.803c1.272,0,2.627-0.857,3.042-1.908c1.134-2.268-0.581-4.895-3.042-4.895H144.078z     M212.939,76.973c-1.853,0-3.401-1.521-3.401-3.401c0-1.853,1.548-3.402,3.401-3.402h46.295c1.854,0,3.402,1.55,3.402,3.402    c0,1.88-1.549,3.401-3.402,3.401H212.939z M238.162,34.189c-1.881,0.027-3.402-1.466-3.429-3.346    c-0.028-1.854,1.465-3.402,3.346-3.43l118.697-1.41c5.919-0.084,11.284,2.268,15.184,6.084c3.955,3.844,6.443,9.209,6.61,15.127    l1.023,37.309c0.054,1.881-1.439,3.428-3.32,3.484c-1.854,0.027-3.4-1.439-3.457-3.319l-1.023-37.308    c-0.11-4.064-1.824-7.771-4.563-10.426c-2.683-2.627-6.332-4.231-10.37-4.203L238.162,34.189z M108.816,469.543    c-1.879,0-3.401-1.548-3.401-3.401c0-1.881,1.521-3.402,3.401-3.402h220.25c1.853,0,3.402,1.521,3.402,3.402    c0,1.854-1.55,3.401-3.402,3.401H108.816z M237.774,485.999c-1.853,0-3.401-1.55-3.401-3.403c0-1.88,1.548-3.4,3.401-3.4h152.411    c1.881,0,3.4,1.521,3.4,3.4c0,1.854-1.52,3.403-3.4,3.403H237.774z M405.783,485.999c-1.882,0-3.402-1.55-3.402-3.403    c0-1.88,1.521-3.4,3.402-3.4h19.055c1.879,0,3.4,1.521,3.4,3.4c0,1.854-1.521,3.403-3.4,3.403H405.783z M87.162,485.473    c-1.881,0-3.4-1.521-3.4-3.401c0-1.853,1.52-3.374,3.4-3.374h72.208c1.881,0,3.403,1.521,3.403,3.374    c0,1.881-1.521,3.401-3.403,3.401H87.162z M264.131,202.474l-28.043-11.007l-28.042,11.007l28.042,9.679L264.131,202.474z" style="fill-rule:evenodd;clip-rule:evenodd;"/></g></g><g id="Layer_1"/></svg>