<?xml version="1.0" standalone="no"?>
<!DOCTYPE svg PUBLIC "-//W3C//DTD SVG 20010904//EN" "http://www.w3.org/TR/2001/REC-SVG-20010904/DTD/svg10.dtd">
<!-- Created using Krita: https://krita.org -->
<svg xmlns="http://www.w3.org/2000/svg" 
    xmlns:xlink="http://www.w3.org/1999/xlink"
    xmlns:krita="http://krita.org/namespaces/svg/krita"
    xmlns:sodipodi="http://sodipodi.sourceforge.net/DTD/sodipodi-0.dtd"
    width="992pt"
    height="600pt"
    viewBox="0 0 992 600">
<defs/>
<path id="shape0" transform="matrix(0.995138622933615 0.0984841162106227 -0.0984841162106227 0.995138622933615 327.117068649386 181.039038581083)" fill="#000000" stroke="#000000" stroke-opacity="0" stroke-width="0" stroke-linecap="square" stroke-linejoin="bevel" d="M5.39957 13.3114C1.79986 4.74776 2.89362e-7 0.465928 0 0.465928C0.114065 0.509216 0.201755 0.524993 0.26307 0.513261C1.0187 0.36868 1.6492 -0.048128 2.41116 0.00457823C3.67154 0.0917617 4.78001 0.279741 5.95644 0.907084C8.99859 2.52934 11.4945 4.30309 14.3831 6.38875C15.6107 7.27513 16.5238 8.35663 17.693 9.38126C18.8788 10.4205 19.9422 11.2103 21.1112 12.285C23.6886 14.6545 26.0259 16.4678 28.3938 19.2191C29.7188 20.7585 30.5993 22.4718 31.5751 24.4429C32.2217 25.7491 33.0052 27.7326 33.9255 30.3931L44.2842 55.0363C44.8402 56.7694 45.1994 58.1301 45.3618 59.1185C46.0955 63.5849 46.7452 67.4317 47.0689 71.9887C47.5114 78.2191 47.8166 83.6134 47.5455 89.8622C47.3513 94.3385 46.6822 98.1377 45.748 102.435C44.7756 106.908 43.5162 110.55 42.1222 114.807C41.574 116.481 40.9304 117.801 40.2102 119.347C39.4558 120.967 38.7089 122.263 37.913 123.845C37.1354 125.391 36.5071 126.752 35.7145 128.283C32.4601 134.571 29.3881 139.695 26.3509 146.185C25.0865 148.887 24.3284 151.476 23.4636 154.459C23.0469 155.897 22.7788 157.213 22.707 158.757C22.6424 160.148 22.7489 161.389 23.0804 162.706C23.2865 163.524 23.7587 164.579 24.4968 165.869L14.1216 141.187C15.9574 143.309 17.4238 144.834 18.5207 145.759C19.6439 146.706 20.735 147.207 21.9772 147.813C23.2594 148.438 24.3956 148.826 25.7176 149.269C26.9846 149.693 28.0847 149.976 29.369 150.286C30.6096 150.586 31.6797 150.792 32.9291 151.012C34.1482 151.227 35.1966 151.374 36.4204 151.531C37.6233 151.685 38.6563 151.789 39.8618 151.902C41.0529 152.012 42.075 152.087 43.2674 152.167C44.45 152.245 45.4642 152.299 46.6475 152.356C47.8239 152.413 48.8326 152.451 50.0093 152.491C51.1813 152.532 52.1859 152.558 53.358 152.588C54.5268 152.617 55.5286 152.637 56.6974 152.657C57.8638 152.678 58.8636 152.691 60.0301 152.707C61.1949 152.72 62.1932 152.731 63.358 152.741C64.5216 152.752 65.519 152.759 66.6825 152.767C67.8453 152.774 68.8419 152.779 70.0046 152.785C71.1667 152.79 72.1629 152.793 73.325 152.797C74.4867 152.801 75.487 152.664 76.6441 152.807C79.861 153.201 82.5989 153.794 85.8051 154.329C87.0458 154.535 88.1104 154.7 89.3496 154.922C90.5685 155.142 91.6079 155.384 92.8278 155.591C94.0265 155.796 95.0584 155.918 96.259 156.099C97.4494 156.278 98.4735 156.39 99.6592 156.621C100.006 156.688 100.495 156.828 101.127 157.043L111.5 181.719C110.85 181.44 110.345 181.262 109.984 181.184C108.8 180.928 107.772 180.839 106.581 180.656C105.378 180.469 104.343 180.339 103.142 180.127C101.918 179.912 100.876 179.662 99.6531 179.434C98.4105 179.203 97.3441 179.015 96.0985 178.816C92.9103 178.306 90.184 177.773 86.9852 177.408C85.8274 177.276 84.8276 177.402 83.6659 177.398C82.5037 177.394 81.5075 177.39 80.3453 177.384C79.1824 177.379 78.1857 177.373 77.0229 177.367C75.8591 177.358 74.8616 177.35 73.6979 177.339C72.5328 177.328 71.5342 177.318 70.3692 177.303C69.2024 177.287 68.2023 177.273 67.0356 177.251C65.8663 177.229 64.864 177.209 63.6948 177.178C62.522 177.148 61.5168 177.121 60.3442 177.078C59.1664 177.036 58.157 176.996 56.9796 176.935C55.7949 176.876 54.7795 176.82 53.5955 176.737C52.401 176.652 51.3772 176.574 50.1841 176.459C48.9756 176.341 47.9399 176.231 46.7342 176.067C45.5059 175.901 44.4536 175.746 43.2305 175.519C41.9744 175.286 40.8987 175.067 39.6522 174.75C38.3591 174.422 37.253 174.114 35.9771 173.676C34.6535 173.221 33.5155 172.828 32.2296 172.202C30.9926 171.601 29.9104 171.096 28.7832 170.173C27.7191 169.301 26.2903 167.867 24.4968 165.869L14.1216 141.187C13.3588 139.852 12.8711 138.76 12.6585 137.913C12.3409 136.646 12.2711 135.445 12.3465 134.11C12.4331 132.575 12.6902 131.264 13.1144 129.839C13.9923 126.889 14.7791 124.342 16.0476 121.673C19.1113 115.228 22.1709 110.114 25.4552 103.877C26.249 102.369 26.9251 101.073 27.6992 99.5465C28.5043 97.9586 29.2197 96.6193 29.9671 94.979C30.6788 93.4171 31.3199 92.0887 31.8648 90.405C33.2491 86.1272 34.5149 82.4735 35.4682 77.979C36.3911 73.6277 37.0162 69.7754 37.2 65.2503C37.4543 58.9909 37.1591 53.59 36.7125 47.3509C36.3856 42.7855 35.7311 38.9325 34.9956 34.4576C34.834 33.4739 34.4773 32.1191 33.9255 30.3931L44.2842 55.0363C43.357 52.3614 42.5687 50.3665 41.9193 49.0518C40.9224 47.0332 40.0292 45.2737 38.6795 43.6885C36.2979 40.8914 33.9431 39.0429 31.3463 36.6342C30.1753 35.548 29.1095 34.7489 27.9178 33.706C26.7565 32.6898 25.853 31.6039 24.6238 30.7513C21.8037 28.7955 19.368 27.1107 16.3795 25.7034C15.2706 25.1813 14.2137 25.2094 13.0432 25.2981C12.3074 25.3539 11.7323 25.8379 11.0224 26.1096C10.9716 26.1291 10.8972 26.1449 10.7991 26.1569L10.7991 26.1569C10.7991 26.1569 8.99928 21.875 5.39957 13.3114Z"/><path id="shape1" transform="translate(416.464081964914, 218.371851320134)" fill="#000000" stroke="#000000" stroke-opacity="0" stroke-width="0" stroke-linecap="square" stroke-linejoin="bevel" d="M59.7609 42.2001C57.6544 38.5514 56.6011 36.7271 56.6011 36.7271C56.6967 36.6657 56.7675 36.615 56.8133 36.5749C57.2259 36.2146 57.5615 35.8855 57.9754 35.5268C58.3222 35.2263 58.6645 35.019 58.9863 34.6918C59.1395 34.5361 59.275 34.377 59.3173 34.1627C59.3972 33.7566 59.4139 33.3841 59.3234 32.9802C59.248 32.644 59.0559 32.1908 58.7472 31.6205L64.8424 42.1778C64.423 41.5389 64.064 41.081 63.7653 40.804C63.0308 40.1228 62.3681 39.5494 61.4895 39.0682C60.3741 38.4573 59.3639 37.9703 58.1188 37.7115C56.8053 37.4384 55.6291 37.5278 54.2883 37.5713C53.2278 37.6057 52.3112 37.6896 51.2786 37.9332C50.3463 38.1532 49.5994 38.5231 48.7132 38.8868C48.0378 39.164 47.4697 39.4299 46.8201 39.7631C46.1802 40.0914 45.61 40.3476 45.0318 40.7754C44.5365 41.1418 44.0974 41.4847 43.7797 42.0125C43.5373 42.4152 43.4599 42.8568 43.4966 43.3255C43.5325 43.7838 43.7453 44.1513 43.9784 44.5475C44.1659 44.8662 44.4902 45.2831 44.9514 45.7983L38.8474 35.2257C40.2771 36.4117 41.3574 37.3456 42.0884 38.0274C42.9502 38.8314 43.601 39.6097 44.4372 40.4402C44.9534 40.9528 45.4067 41.3819 45.9515 41.864C46.8034 42.6176 47.4381 43.4073 48.4267 43.9698C49.8173 44.7609 51.1382 45.2037 52.6646 45.6832C54.8897 46.3823 56.8141 46.9918 59.1219 47.33C62.525 47.8287 65.4851 47.9161 68.9213 48.0654C70.1847 48.1203 71.2921 48.1649 72.5313 47.9127C73.9485 47.6243 75.1323 47.1804 76.428 46.5379C77.8394 45.8381 79.0311 45.1439 80.2138 44.1032C81.3111 43.1377 82.0069 42.0597 82.8635 40.8755C83.4487 40.0664 83.8742 39.316 84.322 38.4234C85.1205 36.8314 85.9043 35.492 86.4191 33.787C86.9038 32.1817 87.0155 30.7236 87.1518 29.0523C87.2878 27.3843 87.4593 25.9235 87.1951 24.271C86.8955 22.3965 86.3022 20.8469 85.5609 19.0993C84.9559 17.6731 83.9361 15.7087 82.5016 13.2063L88.4748 23.5522C87.7681 22.6493 87.19 21.9881 86.7403 21.5689C85.3731 20.2939 84.1926 19.1915 82.6562 18.1263C81.1705 17.0962 79.7765 16.3894 78.1454 15.6095C77.3547 15.2314 76.6135 15.0516 75.7652 14.8313C72.6488 14.0218 69.9558 13.4143 66.8234 12.6687C65.826 12.4312 64.9711 12.2258 63.9661 12.0225C62.9977 11.8265 62.1707 11.6188 61.1868 11.5281C56.3728 11.0844 52.2364 10.8195 47.4128 10.4967C46.3736 10.4272 45.4796 10.4321 44.4384 10.4073C43.3516 10.3814 42.4199 10.3662 41.3329 10.3518C40.2894 10.3381 39.3948 10.3341 38.3512 10.3268C37.3454 10.3198 36.4832 10.3004 35.4774 10.3108C34.4991 10.3209 33.6482 10.2258 32.6829 10.3855C30.6511 10.7217 28.8839 11.0069 26.9524 11.7214C24.7063 12.5523 22.8723 13.525 20.8271 14.771C18.882 15.956 17.2401 17.0654 15.595 18.6407C14.2035 19.9731 13.3615 21.4376 12.2338 22.9995C11.6838 23.7614 11.243 24.4413 10.8064 25.2734C9.82064 27.1517 8.92463 28.7487 8.17527 30.7332C7.48657 32.557 7.15558 34.2094 6.71493 36.1085C6.5298 36.9063 6.47373 37.6112 6.39029 38.426C6.2204 40.085 6.04346 41.5072 5.99137 43.1741C5.94898 44.5305 6.01008 45.6968 6.1208 47.0494C6.22834 48.3631 6.36585 49.4885 6.61421 50.783C6.77118 51.6011 6.93286 52.3101 7.27578 53.0693C7.73075 54.0765 8.48181 55.4653 9.52895 57.2356L3.56069 46.8983C5.17557 48.8461 6.50546 50.2504 7.55034 51.1113C10.7065 53.7118 13.5065 55.8589 17.0053 57.9759C20.9534 60.3647 24.6091 61.9309 28.7609 63.9449C31.1169 65.0878 33.2034 65.9234 35.5936 66.993C37.7947 67.9779 39.6904 68.8023 41.8789 69.8147C43.2929 70.4688 44.4699 71.1033 45.8855 71.754C47.9917 72.722 49.8214 73.4978 51.9397 74.439C53.324 75.054 54.5165 75.5678 55.8928 76.2003C57.2476 76.8228 58.3989 77.3777 59.7424 78.0242C61.6726 78.9529 63.3325 79.7381 65.246 80.7008C67.1854 81.6766 68.8527 82.5062 70.7497 83.5621C72.1021 84.3148 73.2343 85.0109 74.5249 85.8654C77.1987 87.6356 79.4893 89.1592 82.073 91.0585C83.9337 92.4262 85.5367 93.6068 87.2146 95.1934C90.3447 98.153 93.0668 100.685 95.7865 104.025C96.664 105.103 97.6202 106.843 98.655 109.246L104.569 119.489C105.015 120.672 105.303 121.595 105.433 122.26C105.914 124.719 106.421 126.835 106.495 129.34C106.548 131.094 106.148 132.587 105.791 134.306C105.614 135.158 105.424 135.908 104.976 136.654C103.815 138.585 102.738 140.215 101.232 141.891C99.5309 143.785 97.8267 145.177 95.8639 146.797C94.9894 147.519 94.1322 148 93.1484 148.564C92.1526 149.135 91.2811 149.604 90.2169 150.034C87.85 150.991 85.8135 151.816 83.3597 152.52C81.4344 153.072 79.7195 153.292 77.7424 153.612C76.2936 153.847 75.0398 153.974 73.5778 154.105C72.0031 154.245 70.6484 154.304 69.0696 154.388C66.472 154.526 64.2447 154.631 61.6457 154.74C59.1477 154.844 57.006 154.924 54.5069 154.995C52.9576 155.039 51.6289 155.088 50.0791 155.066C47.6617 155.031 45.5867 155.009 43.1756 154.832C40.5222 154.637 38.2443 154.438 35.6192 154.005C31.3594 153.303 27.6806 152.753 23.5223 151.592C21.7359 151.093 20.3438 150.238 18.7468 149.295C17.7275 148.692 16.9208 148.045 16.0894 147.202C14.6785 145.771 13.4992 144.491 12.3695 142.829C11.8588 142.078 11.3088 140.903 10.7195 139.303L4.7468 128.958C4.31449 126.593 4.09405 124.766 4.08548 123.478C4.07563 121.998 4.36666 120.739 4.68247 119.293C4.88362 118.373 5.18651 117.613 5.55625 116.747C5.92712 115.877 6.19753 115.08 6.79292 114.346C7.67117 113.263 8.57942 112.45 9.70658 111.63C10.6243 110.962 11.5184 110.525 12.5829 110.131C15.4023 109.087 17.8668 108.312 20.7705 107.532C21.9515 107.215 23.0115 107.16 24.2244 107.004C25.5206 106.836 26.6306 106.614 27.9375 106.608C31.7952 106.592 35.1184 106.535 38.9547 106.942C41.8916 107.253 44.3908 107.797 47.2176 108.653C48.9995 109.192 50.477 109.887 52.0384 110.901C52.96 111.499 53.5245 112.312 54.1942 113.183C54.4273 113.487 54.6701 113.976 54.9224 114.652L61.0311 125.233C61.0778 126.369 61.0451 127.235 60.9333 127.832C60.7495 128.811 60.4913 129.647 60.0367 130.534C59.2762 132.018 58.5042 133.237 57.4857 134.558C56.6788 135.604 55.8173 136.36 54.8491 137.259C54.2112 137.851 53.6338 138.334 52.9053 138.811C51.5727 139.682 50.4651 140.541 48.9746 141.101C47.0484 141.824 45.2675 142.035 43.2496 142.438C42.4111 142.605 41.6787 142.721 40.8237 142.726C39.5959 142.735 38.5249 142.735 37.3243 142.478C36.2722 142.252 35.3923 141.899 34.4597 141.362C33.903 141.042 33.5082 140.609 33.1506 140.076C32.7666 139.503 32.3252 138.622 31.8264 137.434L25.7761 126.954C25.5583 126.111 25.4584 125.459 25.4764 124.997C25.5044 124.281 25.6714 123.668 25.9302 122.999C26.1629 122.398 26.4459 121.903 26.864 121.412C27.3145 120.883 27.7714 120.468 28.3773 120.128C29.0818 119.733 30.1442 119.282 31.5644 118.776L37.5654 129.17C36.1565 129.7 35.1067 130.172 34.4162 130.588C33.8157 130.949 33.3977 131.412 32.9473 131.948C32.5392 132.435 32.2184 132.896 31.9848 133.486C31.719 134.158 31.5701 134.78 31.5411 135.502C31.5229 135.957 31.6179 136.601 31.8264 137.434L25.7761 126.954C26.2614 128.118 26.6919 128.98 27.0678 129.54C27.4307 130.081 27.8305 130.516 28.3903 130.849C29.3422 131.416 30.2339 131.812 31.3122 132.065C32.5186 132.348 33.601 132.363 34.8402 132.363C35.6933 132.362 36.4237 132.235 37.2589 132.061C39.2672 131.643 41.0317 131.39 42.9531 130.671C44.4444 130.113 45.5791 129.303 46.9214 128.446C47.6551 127.978 48.2332 127.494 48.8669 126.898C49.8322 125.989 50.684 125.215 51.4796 124.155C52.4878 122.811 53.2531 121.574 53.9924 120.065C54.44 119.152 54.6729 118.289 54.8451 117.287C54.9493 116.681 54.975 115.803 54.9224 114.652L61.0311 125.233C60.7526 124.508 60.4887 123.982 60.2394 123.654C59.5556 122.754 58.975 121.922 58.0372 121.291C56.44 120.216 54.9372 119.448 53.1063 118.852C50.2523 117.923 47.7233 117.306 44.7414 116.965C40.9088 116.525 37.5821 116.61 33.7245 116.631C32.4209 116.639 31.3134 116.861 30.0231 117.047C28.8238 117.22 27.7836 117.335 26.6149 117.655C23.7128 118.45 21.2221 119.152 18.4116 120.227C17.3524 120.632 16.5049 121.16 15.6143 121.862C14.5116 122.732 13.6354 123.584 12.7606 124.682C12.1784 125.414 11.8672 126.177 11.4957 127.034C11.1193 127.903 10.8344 128.673 10.6315 129.597C10.3161 131.035 10.0074 132.286 10.0207 133.758C10.0325 135.062 10.2655 136.91 10.7195 139.303L4.7468 128.958C5.3516 130.584 5.91332 131.779 6.43194 132.545C7.58802 134.252 8.78729 135.573 10.2273 137.048C11.0625 137.904 11.8772 138.557 12.9025 139.172C14.5135 140.138 15.9181 141.005 17.7187 141.54C21.9334 142.792 25.6577 143.472 29.9857 144.247C32.6084 144.717 34.8935 144.906 37.5516 145.091C39.9481 145.258 42.0112 145.242 44.4135 145.252C45.9551 145.259 47.2754 145.176 48.8165 145.139C51.3327 145.078 53.4904 145.06 56.0057 144.971C58.6057 144.879 60.8345 144.791 63.4305 144.621C64.9835 144.519 66.3093 144.362 67.8566 144.195C69.3146 144.038 70.5717 143.945 72.0167 143.695C73.9786 143.355 75.6801 143.103 77.5811 142.511C80.0077 141.755 81.9976 140.842 84.34 139.855C85.3988 139.41 86.2951 138.992 87.2927 138.422C88.2779 137.859 89.1333 137.368 89.9921 136.627C91.9309 134.953 93.5751 133.476 95.2579 131.544C96.7396 129.844 97.8366 128.23 98.9952 126.295C99.4424 125.548 99.6262 124.796 99.8085 123.945C100.172 122.247 100.59 120.775 100.549 119.04C100.49 116.561 99.997 114.464 99.5264 112.03C99.3971 111.362 99.1067 110.434 98.655 109.246L104.569 119.489C103.511 117.048 102.537 115.277 101.648 114.178C98.8813 110.757 96.1231 108.149 92.9408 105.111C91.2584 103.505 89.645 102.313 87.7735 100.932C85.187 99.023 82.8953 97.4883 80.2126 95.7168C78.9368 94.8743 77.807 94.2054 76.4683 93.467C74.5716 92.4208 72.9093 91.5913 70.973 90.6204C69.0617 89.662 67.4001 88.8878 65.476 87.9551C64.1172 87.2965 62.9629 86.7099 61.5933 86.0739C60.2212 85.4367 59.024 84.9371 57.6435 84.3181C55.5103 83.3617 53.6753 82.5564 51.5545 81.573C50.1424 80.9182 48.9594 80.2992 47.5503 79.6378C45.3378 78.5994 43.4362 77.7201 41.2076 76.7166C38.8347 75.6482 36.7573 74.8285 34.4036 73.7185C30.3199 71.7926 26.7055 70.3411 22.8183 68.0441C19.3487 65.994 16.5829 63.8838 13.4564 61.3409C12.428 60.5045 11.1188 59.136 9.52895 57.2356L3.56069 46.8983C2.4939 45.0968 1.72873 43.6836 1.26518 42.6586C0.929376 41.9161 0.781301 41.2193 0.630256 40.4185C0.386228 39.1247 0.245824 38.0012 0.139206 36.689C0.029457 35.3382 -0.0271346 34.1735 0.0128097 32.8189C0.0622592 31.1418 0.231281 29.7103 0.394219 28.0405C0.474389 27.2189 0.522025 26.5072 0.707185 25.7028C1.14432 23.8036 1.46818 22.1484 2.16894 20.3299C2.92481 18.3683 3.85043 16.8046 4.84886 14.9547C5.29349 14.1309 5.73409 13.4549 6.28712 12.6996C7.42223 11.1492 8.28306 9.70627 9.66725 8.37354C11.3102 6.7917 12.9124 5.6226 14.8637 4.4419C16.9149 3.20069 18.7935 2.31383 21.0447 1.48905C22.9718 0.783024 24.7164 0.437094 26.7394 0.090955C27.7073 -0.0746677 28.5625 0.0369951 29.5445 0.0346534C30.5558 0.0322417 31.4225 0.0602067 32.4337 0.0773759C33.4838 0.095207 34.3839 0.114516 35.434 0.134654C36.5218 0.155515 37.4543 0.170898 38.542 0.194518C39.5796 0.217048 40.4706 0.201706 41.5064 0.266511C46.3182 0.567564 50.4452 0.80586 55.2468 1.23966C56.2377 1.32918 57.0678 1.55486 58.0413 1.76036C59.0525 1.97383 59.9087 2.20445 60.9158 2.43641C64.017 3.15063 66.6922 3.69169 69.7795 4.46372C70.6319 4.67687 71.3741 4.86397 72.1639 5.24913C73.8152 6.0545 75.2164 6.7993 76.7234 7.85032C78.2488 8.91424 79.4288 10.003 80.7928 11.2674C81.235 11.6773 81.8047 12.3236 82.5016 13.2063L88.4748 23.5522C89.8879 26.0238 90.8933 27.9634 91.4912 29.3709C92.2514 31.1606 92.8784 32.7405 93.1928 34.6593C93.4623 36.304 93.2752 37.7598 93.138 39.4207C92.9999 41.0935 92.9074 42.558 92.4083 44.1605C91.8859 45.8376 91.0532 47.1293 90.2504 48.6918C89.7917 49.5846 89.4012 50.3609 88.807 51.1699C87.9479 52.3396 87.2083 53.3696 86.1142 54.323C84.9259 55.3585 83.7486 56.0681 82.3506 56.7962C81.0745 57.4608 79.9202 57.9624 78.5169 58.2801C77.2912 58.5575 76.1873 58.5265 74.9316 58.4756C71.4943 58.3361 68.5343 58.2353 65.1305 57.7372C62.8245 57.3997 60.9021 56.7895 58.6768 56.0968C57.1588 55.6243 55.8429 55.1943 54.4572 54.4148C53.4766 53.8632 52.8437 53.0864 52.0007 52.3413C51.4483 51.8531 50.994 51.4129 50.4719 50.8924C49.635 50.0584 48.9869 49.2734 48.1186 48.4721C47.4078 47.8162 46.3521 46.9249 44.9514 45.7983L38.8474 35.2257C38.3697 34.682 38.0327 34.2432 37.8365 33.9093C37.5918 33.4931 37.3538 33.1114 37.3214 32.6297C37.2921 32.1934 37.4178 31.7872 37.6698 31.4298C38.02 30.9332 38.4741 30.6288 38.9751 30.2848C39.5681 29.8777 40.1405 29.6313 40.7772 29.2965C41.4219 28.9576 41.9635 28.6406 42.6357 28.3603C43.5222 27.9906 44.2855 27.6559 45.222 27.4429C46.2575 27.2075 47.174 27.1253 48.2352 27.0871C49.5696 27.0391 50.74 26.9317 52.0485 27.1975C53.2919 27.45 54.2983 27.9404 55.4138 28.5449C56.2821 29.0154 56.9419 29.5729 57.6677 30.2426C57.9679 30.5196 58.3277 30.9789 58.7472 31.6205L64.8424 42.1778C65.1876 42.8023 65.4048 43.299 65.4939 43.6679C65.5912 44.0706 65.5728 44.4459 65.4884 44.8515C65.4449 45.0609 65.2911 45.2013 65.143 45.3556C64.8229 45.6892 64.483 45.9071 64.1588 46.2368C63.7629 46.6395 63.4578 47.017 63.089 47.4447C63.0458 47.4949 62.9897 47.571 62.9208 47.6731L62.9208 47.6731C62.9208 47.6731 61.8675 45.8488 59.7609 42.2001Z"/><path id="shape2" transform="matrix(0.990298864644852 0.138953800534994 -0.138953800534994 0.990298864644852 373.86844896244 243.449222580193)" fill="#000000" stroke="#000000" stroke-opacity="0" stroke-width="0" stroke-linecap="square" stroke-linejoin="bevel" d="M63.3153 67.5286C64.2145 69.1321 64.6641 69.934 64.6641 69.934C64.6409 69.8511 64.617 69.7906 64.593 69.752C64.466 69.5488 64.3722 69.357 64.2003 69.1924C63.483 68.5061 62.8341 67.9552 62.0642 67.3324C60.7857 66.2985 59.6579 65.4548 58.3499 64.4608C57.1573 63.5545 56.1139 62.8076 54.9202 61.9029C53.7235 60.996 52.7116 60.1994 51.5203 59.2847C50.7275 58.676 50.0447 58.1587 49.2514 57.5502C48.4846 56.9622 47.8286 56.4567 47.0636 55.8665C46.3055 55.2815 45.6529 54.784 44.9 54.1922C44.1734 53.6212 43.5722 53.1026 42.8364 52.5441C40.5444 50.8048 38.6057 49.2743 36.2496 47.6278C34.4233 46.3515 32.7508 45.4282 30.8944 44.1984C28.5426 42.6403 26.5533 41.263 24.2277 39.6635C23.3372 39.051 22.5582 38.5471 21.7061 37.8791C18.9272 35.7001 16.4762 33.9122 13.8572 31.5325C11.821 29.6823 10.154 27.9827 8.43365 25.8194C7.42443 24.5501 6.16561 22.5979 4.65721 19.9627L2.31876 15.7926C1.39571 13.6306 0.750472 11.9439 0.383053 10.7327C0.118166 9.85952 -0.00327966 9.0637 6.72788e-5 8.14889C0.00219834 7.56642 0.186901 7.07624 0.398408 6.53601C0.619082 5.97236 0.840461 5.48382 1.22424 5.02208C1.88103 4.23185 2.47447 3.53823 3.33825 2.99893C4.70752 2.14398 5.99018 1.57338 7.52133 1.09042C9.23222 0.550768 10.7609 0.274788 12.5418 0.095929C13.9335 -0.0438405 15.1556 -0.0444707 16.5361 0.185077C18.8877 0.576112 20.8565 1.17778 23.145 1.85908C24.0699 2.13446 24.8383 2.46742 25.6984 2.91296C27.6678 3.93305 29.3414 4.84616 31.2165 6.03996C31.9181 6.4867 32.491 6.94526 33.0348 7.58406C34.3999 9.1881 35.5364 10.6114 36.6422 12.4149C37.2532 13.4115 37.9668 14.9263 38.7831 16.9594L41.2365 21.3345C41.7367 23.1032 42.0624 24.4759 42.2136 25.4529C42.437 26.8984 42.6025 28.162 42.5183 29.6231C42.4546 30.7248 42.1994 31.665 41.7961 32.6876C41.3799 33.743 40.9048 34.6184 40.2015 35.4977C39.412 36.4848 38.542 37.1515 37.5792 37.9595C37.082 38.3767 36.6189 38.6984 36.0423 38.9877C34.3131 39.8552 32.7771 40.48 31.0074 41.256C30.2391 41.5931 29.5798 41.8824 28.7919 42.167C26.7996 42.8869 25.0654 43.4236 23.0672 44.1254C22.2585 44.4094 21.5707 44.6689 20.7727 44.9831C19.9856 45.2932 19.3123 45.5647 18.5387 45.9086C17.8222 46.2272 17.2183 46.5245 16.5162 46.8754C15.876 47.1955 15.3342 47.4849 14.7041 47.8255C14.1115 48.1459 13.6042 48.4221 13.0232 48.7643C12.454 49.0992 11.9514 49.3663 11.4186 49.7598C10.6424 50.3332 10.0068 50.8689 9.2913 51.5205C8.81215 51.9568 8.39793 52.3391 8.01093 52.8634C7.2178 53.9384 6.51647 54.8639 5.93261 56.0725C5.38334 57.2095 5.0925 58.2749 4.80094 59.5088C4.52238 60.6878 4.35146 61.726 4.31036 62.9386C4.27788 63.8971 4.33887 64.7404 4.59234 65.6633C4.97792 67.067 5.41609 68.2571 6.11901 69.5239C6.65818 70.4955 7.57804 71.7833 8.87857 73.3873L6.54293 69.2224C7.72673 70.3879 8.6515 71.2685 9.31724 71.8635C10.323 72.7627 11.1705 73.5607 12.267 74.3394C14.7678 76.1155 16.9816 77.5331 19.5808 79.1524C20.4817 79.7135 21.2814 80.1601 22.2585 80.5639C24.2035 81.3674 25.877 82.0799 27.9121 82.5947C31.0442 83.3873 33.793 83.7716 36.979 84.2883C38.0431 84.4608 38.9683 84.5311 40.045 84.5623C42.5607 84.6351 44.7318 84.8465 47.2357 84.5851C49.129 84.3876 50.7234 83.9112 52.5187 83.2608C54.1546 82.6679 55.516 82.0001 56.9859 81.0522C58.0665 80.3553 58.9038 79.5894 59.7434 78.6016C60.9135 77.2249 61.7647 75.907 62.6873 74.3437C63.5557 72.8727 64.233 71.5578 64.8466 69.9566C65.6745 67.7953 66.3412 65.9048 66.7929 63.6285C67.549 59.8177 68.0833 56.5063 68.2855 52.6222C68.4102 50.2294 68.2817 46.8087 67.9002 42.3601L69.6992 45.5683C69.9741 49.884 70.0444 53.2009 69.91 55.5191C69.6831 59.4366 69.1698 62.7751 68.4785 66.6344C68.0523 69.0129 67.4554 71.0061 66.724 73.3047C66.1716 75.0407 65.6143 76.509 64.8168 78.141C63.9874 79.8379 63.2402 81.3007 62.09 82.7862C61.2957 83.8121 60.4114 84.5379 59.3283 85.2293C57.8536 86.1709 56.4885 86.8349 54.8459 87.4109C53.037 88.0449 51.4275 88.4886 49.5243 88.6664C47.0058 88.9017 44.8268 88.6715 42.2995 88.5827C41.2221 88.5449 40.2968 88.473 39.2312 88.3048C36.0587 87.8039 33.3171 87.4552 30.1987 86.6726C28.1551 86.1597 26.4798 85.4299 24.5307 84.6157C23.5479 84.2051 22.7497 83.7418 21.8397 83.1804C19.2684 81.5944 17.0673 80.224 14.5915 78.4845C13.4947 77.7141 12.6516 76.9154 11.6481 76.0201C10.9834 75.4271 10.0603 74.5494 8.87857 73.3873L6.54293 69.2224C5.21935 67.5773 4.28185 66.2578 3.73039 65.2643C3.01223 63.9705 2.56127 62.7573 2.15979 61.3254C1.89573 60.3836 1.81669 59.5234 1.84588 58.5437C1.8819 57.3356 2.06052 56.3012 2.34447 55.1283C2.64056 53.9052 2.94758 52.8543 3.49595 51.7274C4.08424 50.5181 4.77455 49.5838 5.56693 48.5052C5.95274 47.9801 6.36898 47.6001 6.84846 47.1644C7.56458 46.5137 8.19794 45.9749 8.97726 45.4063C9.51221 45.0162 10.0214 44.7611 10.5938 44.432C11.1783 44.0959 11.6834 43.815 12.2821 43.5066C12.9201 43.1781 13.4758 42.915 14.1261 42.6131C14.8394 42.282 15.4541 42.0052 16.1776 41.6982C16.9577 41.3672 17.6319 41.0969 18.4215 40.7905C19.2211 40.48 19.9099 40.2222 20.7178 39.936C22.7127 39.2295 24.4425 38.6836 26.4294 37.9541C27.2151 37.6656 27.8753 37.3795 28.6368 37.0287C30.3885 36.2217 31.8983 35.5444 33.6083 34.6473C34.18 34.3475 34.6521 34.0403 35.1433 33.6153C36.0988 32.7887 36.9465 32.0874 37.7266 31.0843C38.4203 30.1921 38.8935 29.3146 39.3106 28.2555C39.7119 27.237 39.9757 26.3038 40.0416 25.2067C40.1292 23.7505 39.9639 22.4905 39.744 21.049C39.5959 20.0793 39.2757 18.716 38.7831 16.9594L41.2365 21.3345C40.3862 19.2392 39.646 17.6769 39.0158 16.6476C37.9081 14.8385 36.7681 13.4115 35.4003 11.8023C34.8548 11.1606 34.2784 10.7025 33.5769 10.2494C31.6818 9.02539 29.9958 8.07585 28.0048 7.02573C27.1445 6.57204 26.3736 6.2344 25.4447 5.96016C23.1651 5.28727 21.2 4.70872 18.8579 4.3257C17.4755 4.0996 16.2519 4.08051 14.8595 4.229C13.0872 4.418 11.5657 4.71134 9.87291 5.28391C8.35551 5.79716 7.09695 6.41688 5.75497 7.30857C4.90092 7.87606 4.32513 8.59166 3.67899 9.39953C3.30202 9.87085 3.07772 10.3589 2.86084 10.9271C2.65197 11.4744 2.47937 11.9711 2.47314 12.559C2.46376 13.4476 2.5662 14.2229 2.81702 15.0731C3.1624 16.2438 3.77578 17.8737 4.65721 19.9627L2.31876 15.7926C3.85791 18.4861 5.14153 20.4825 6.16962 21.782C7.90077 23.9699 9.57587 25.6934 11.6304 27.5615C14.2351 29.93 16.6809 31.6992 19.4516 33.8588C20.2952 34.5162 21.0672 35.0104 21.9526 35.6064C24.241 37.1468 26.2089 38.457 28.5192 39.9626C30.3769 41.1731 32.0448 42.09 33.8602 43.3667C36.2448 45.044 38.1948 46.6192 40.5105 48.396C41.2479 48.9622 41.8534 49.4834 42.5829 50.0604C43.3401 50.6592 43.996 51.1633 44.7582 51.7553C45.5265 52.3522 46.1854 52.8634 46.9561 53.4573C47.7512 54.07 48.4366 54.5897 49.2313 55.2028C50.4276 56.1256 51.4374 56.9382 52.6448 57.8456C53.8129 58.7233 54.8402 59.4381 56.0179 60.3023C57.2781 61.2267 58.3656 62.009 59.6099 62.9561C60.318 63.4948 60.926 63.9572 61.595 64.5465C61.7411 64.6752 61.8204 64.8322 61.9266 64.9972C61.9432 65.0231 61.9565 65.0651 61.9665 65.1234L61.9665 65.1234C61.9665 65.1234 62.4161 65.9251 63.3153 67.5286Z"/>
</svg>
