<svg id="Layer_1" data-name="Layer 1" xmlns="http://www.w3.org/2000/svg" viewBox="0 0 512 512"><defs><style>.cls-1{fill:#141f38;}</style></defs><title>browser-14-glyph</title><path class="cls-1" d="M0,448a64,64,0,0,0,64,64H448a64,64,0,0,0,64-64V140.8H0Zm307.2-19.2a32,32,0,0,1-32,32H236.8a32,32,0,0,1-32-32V403.2a32,32,0,0,1,32-32h38.4a32,32,0,0,1,32,32Zm-102.4-96a12.8,12.8,0,1,1,12.8,12.8A12.8,12.8,0,0,1,204.8,332.8Zm38.4,0A12.8,12.8,0,1,1,256,345.6,12.8,12.8,0,0,1,243.2,332.8Zm51.2,12.8a12.8,12.8,0,1,1,12.8-12.8A12.8,12.8,0,0,1,294.4,345.6ZM448,428.8a32,32,0,0,1-32,32H377.6a32,32,0,0,1-32-32V403.2a32,32,0,0,1,32-32H416a32,32,0,0,1,32,32ZM64,224a32,32,0,0,1,32-32H416a32,32,0,0,1,32,32v38.4a32,32,0,0,1-32,32H96a32,32,0,0,1-32-32Zm0,179.2a32,32,0,0,1,32-32h38.4a32,32,0,0,1,32,32v25.6a32,32,0,0,1-32,32H96a32,32,0,0,1-32-32Z"/><path class="cls-1" d="M448,0H64A64,64,0,0,0,0,64v51.2H512V64A64,64,0,0,0,448,0ZM70.4,76.8A19.2,19.2,0,1,1,89.6,57.6,19.2,19.2,0,0,1,70.4,76.8Zm51.2,0a19.2,19.2,0,1,1,19.2-19.2A19.2,19.2,0,0,1,121.6,76.8Zm51.2,0A19.2,19.2,0,1,1,192,57.6,19.2,19.2,0,0,1,172.8,76.8Z"/></svg>